<svg width="23" height="20" viewBox="0 0 23 20" fill="none" xmlns="http://www.w3.org/2000/svg">
<path d="M22.8571 1.42857C22.8571 6.5 19.0804 10.692 14.1875 11.3393C13.8705 8.95536 12.8214 6.80357 11.2723 5.12054C12.9821 2.06696 16.25 0 20 0H21.4286C22.2187 0 22.8571 0.638393 22.8571 1.42857ZM0 4.28571C0 3.49554 0.638393 2.85714 1.42857 2.85714H2.85714C8.37946 2.85714 12.8571 7.33482 12.8571 12.8571V14.2857V18.5714C12.8571 19.3616 12.2187 20 11.4286 20C10.6384 20 10 19.3616 10 18.5714V14.2857C4.47768 14.2857 0 9.80804 0 4.28571Z" fill="white"/>
</svg>
